<mxfile host="app.diagrams.net" agent="Mozilla/5.0 (Windows NT 10.0; Win64; x64) AppleWebKit/537.36 (KHTML, like Gecko) Chrome/128.0.0.0 Safari/537.36" version="24.7.7">
  <diagram name="Page-1" id="yUPK65_wHJLfs9x1Mb7a">
    <mxGraphModel dx="3749" dy="2156" grid="0" gridSize="10" guides="1" tooltips="1" connect="1" arrows="1" fold="1" page="1" pageScale="1" pageWidth="850" pageHeight="1100" math="0" shadow="0">
      <root>
        <mxCell id="0" />
        <mxCell id="1" parent="0" />
        <mxCell id="XujKJvzIHlOEt5AJ_pf2-1" style="edgeStyle=none;rounded=0;orthogonalLoop=1;jettySize=auto;html=1;exitX=1;exitY=0.5;exitDx=0;exitDy=0;elbow=vertical;endArrow=none;endFill=0;dashed=1;fillColor=#f5f5f5;strokeColor=#666666;dashPattern=1 4;strokeWidth=1;" parent="1" edge="1">
          <mxGeometry relative="1" as="geometry">
            <mxPoint x="-40" y="-340.58333333333303" as="targetPoint" />
            <mxPoint x="-1040" y="-340.25" as="sourcePoint" />
          </mxGeometry>
        </mxCell>
        <mxCell id="XujKJvzIHlOEt5AJ_pf2-2" style="edgeStyle=none;rounded=0;orthogonalLoop=1;jettySize=auto;html=1;exitX=1;exitY=0.5;exitDx=0;exitDy=0;elbow=vertical;endArrow=none;endFill=0;dashed=1;fillColor=#f5f5f5;strokeColor=#666666;dashPattern=1 4;strokeWidth=1;" parent="1" edge="1">
          <mxGeometry relative="1" as="geometry">
            <mxPoint x="-40" y="-420.58333333333303" as="targetPoint" />
            <mxPoint x="-1040" y="-420.25" as="sourcePoint" />
          </mxGeometry>
        </mxCell>
        <mxCell id="XujKJvzIHlOEt5AJ_pf2-3" style="edgeStyle=none;rounded=0;orthogonalLoop=1;jettySize=auto;html=1;exitX=1;exitY=0.5;exitDx=0;exitDy=0;elbow=vertical;endArrow=none;endFill=0;dashed=1;fillColor=#f5f5f5;strokeColor=#666666;dashPattern=1 4;strokeWidth=1;" parent="1" edge="1">
          <mxGeometry relative="1" as="geometry">
            <mxPoint x="-40" y="-500.463333333333" as="targetPoint" />
            <mxPoint x="-1040" y="-500.13" as="sourcePoint" />
          </mxGeometry>
        </mxCell>
        <mxCell id="XujKJvzIHlOEt5AJ_pf2-4" style="edgeStyle=none;rounded=0;orthogonalLoop=1;jettySize=auto;html=1;exitX=1;exitY=0.5;exitDx=0;exitDy=0;elbow=vertical;endArrow=none;endFill=0;dashed=1;fillColor=#f5f5f5;strokeColor=#666666;dashPattern=1 4;strokeWidth=1;" parent="1" edge="1">
          <mxGeometry relative="1" as="geometry">
            <mxPoint x="-40" y="-580.713333333333" as="targetPoint" />
            <mxPoint x="-1040" y="-580.38" as="sourcePoint" />
          </mxGeometry>
        </mxCell>
        <mxCell id="XujKJvzIHlOEt5AJ_pf2-5" style="edgeStyle=none;rounded=0;orthogonalLoop=1;jettySize=auto;html=1;exitX=1;exitY=0.5;exitDx=0;exitDy=0;elbow=vertical;endArrow=none;endFill=0;dashed=1;fillColor=#f5f5f5;strokeColor=#666666;dashPattern=1 4;strokeWidth=1;" parent="1" edge="1">
          <mxGeometry relative="1" as="geometry">
            <mxPoint x="-40" y="-660.713333333333" as="targetPoint" />
            <mxPoint x="-1040" y="-660.38" as="sourcePoint" />
          </mxGeometry>
        </mxCell>
        <mxCell id="XujKJvzIHlOEt5AJ_pf2-6" style="edgeStyle=none;rounded=0;orthogonalLoop=1;jettySize=auto;html=1;exitX=1;exitY=0.5;exitDx=0;exitDy=0;elbow=vertical;endArrow=none;endFill=0;dashed=1;fillColor=#f5f5f5;strokeColor=#666666;dashPattern=1 4;strokeWidth=1;" parent="1" edge="1">
          <mxGeometry relative="1" as="geometry">
            <mxPoint x="-40" y="-740.713333333333" as="targetPoint" />
            <mxPoint x="-1040" y="-740.38" as="sourcePoint" />
          </mxGeometry>
        </mxCell>
        <mxCell id="XujKJvzIHlOEt5AJ_pf2-7" style="edgeStyle=none;rounded=0;orthogonalLoop=1;jettySize=auto;html=1;exitX=1;exitY=0.5;exitDx=0;exitDy=0;elbow=vertical;endArrow=none;endFill=0;dashed=1;fillColor=#f5f5f5;strokeColor=#666666;dashPattern=1 4;strokeWidth=1;" parent="1" edge="1">
          <mxGeometry relative="1" as="geometry">
            <mxPoint x="-40" y="-820.963333333333" as="targetPoint" />
            <mxPoint x="-1040" y="-820.63" as="sourcePoint" />
          </mxGeometry>
        </mxCell>
        <mxCell id="XujKJvzIHlOEt5AJ_pf2-8" style="edgeStyle=orthogonalEdgeStyle;curved=1;rounded=0;orthogonalLoop=1;jettySize=auto;html=1;exitX=1;exitY=0.5;exitDx=0;exitDy=0;endArrow=none;endFill=0;dashed=1;dashPattern=1 4;" parent="1" source="XujKJvzIHlOEt5AJ_pf2-18" edge="1">
          <mxGeometry relative="1" as="geometry">
            <mxPoint x="-1080" y="-420.34000000000015" as="sourcePoint" />
            <mxPoint x="-320" y="-419.75" as="targetPoint" />
          </mxGeometry>
        </mxCell>
        <mxCell id="XujKJvzIHlOEt5AJ_pf2-9" style="edgeStyle=orthogonalEdgeStyle;curved=1;rounded=0;orthogonalLoop=1;jettySize=auto;html=1;exitX=1;exitY=0.5;exitDx=0;exitDy=0;endArrow=none;endFill=0;dashed=1;dashPattern=1 4;" parent="1" source="XujKJvzIHlOEt5AJ_pf2-19" edge="1">
          <mxGeometry relative="1" as="geometry">
            <mxPoint x="-1080" y="-340.34000000000015" as="sourcePoint" />
            <mxPoint x="-320" y="-339.75" as="targetPoint" />
          </mxGeometry>
        </mxCell>
        <mxCell id="XujKJvzIHlOEt5AJ_pf2-10" style="edgeStyle=orthogonalEdgeStyle;curved=1;rounded=0;orthogonalLoop=1;jettySize=auto;html=1;exitX=0;exitY=0.5;exitDx=0;exitDy=0;entryX=0;entryY=0;entryDx=0;entryDy=0;endArrow=none;endFill=0;fillColor=#dae8fc;strokeColor=#6c8ebf;strokeWidth=3;" parent="1" edge="1">
          <mxGeometry relative="1" as="geometry">
            <mxPoint x="-640" y="-780" as="targetPoint" />
            <mxPoint x="-600" y="-820" as="sourcePoint" />
          </mxGeometry>
        </mxCell>
        <mxCell id="XujKJvzIHlOEt5AJ_pf2-11" value="" style="ellipse;whiteSpace=wrap;html=1;aspect=fixed;fillColor=#d5e8d4;strokeColor=#82b366;strokeWidth=2;" parent="1" vertex="1">
          <mxGeometry x="-600" y="-840" width="40" height="40" as="geometry" />
        </mxCell>
        <mxCell id="XujKJvzIHlOEt5AJ_pf2-12" value="" style="ellipse;whiteSpace=wrap;html=1;aspect=fixed;fillColor=#dae8fc;strokeColor=#6c8ebf;strokeWidth=2;" parent="1" vertex="1">
          <mxGeometry x="-720" y="-680" width="40" height="40" as="geometry" />
        </mxCell>
        <mxCell id="XujKJvzIHlOEt5AJ_pf2-13" style="edgeStyle=orthogonalEdgeStyle;curved=1;rounded=0;orthogonalLoop=1;jettySize=auto;html=1;exitX=1;exitY=0.5;exitDx=0;exitDy=0;entryX=1;entryY=1;entryDx=0;entryDy=0;endArrow=none;endFill=0;fillColor=#dae8fc;strokeColor=#6c8ebf;strokeWidth=3;" parent="1" edge="1">
          <mxGeometry relative="1" as="geometry">
            <mxPoint x="-680" y="-660" as="sourcePoint" />
            <mxPoint x="-640" y="-700" as="targetPoint" />
          </mxGeometry>
        </mxCell>
        <mxCell id="XujKJvzIHlOEt5AJ_pf2-14" style="edgeStyle=orthogonalEdgeStyle;rounded=0;orthogonalLoop=1;jettySize=auto;html=1;exitX=1;exitY=0.5;exitDx=0;exitDy=0;entryX=0.5;entryY=0;entryDx=0;entryDy=0;curved=1;endArrow=none;endFill=0;strokeWidth=3;fillColor=#e1d5e7;strokeColor=#9673a6;" parent="1" edge="1">
          <mxGeometry relative="1" as="geometry">
            <mxPoint x="-520" y="-780" as="targetPoint" />
            <mxPoint x="-560" y="-820" as="sourcePoint" />
          </mxGeometry>
        </mxCell>
        <mxCell id="XujKJvzIHlOEt5AJ_pf2-15" style="edgeStyle=orthogonalEdgeStyle;curved=1;rounded=0;orthogonalLoop=1;jettySize=auto;html=1;exitX=0;exitY=0.5;exitDx=0;exitDy=0;entryX=0.5;entryY=1;entryDx=0;entryDy=0;endArrow=none;endFill=0;strokeWidth=3;fillColor=#e1d5e7;strokeColor=#9673a6;" parent="1" source="XujKJvzIHlOEt5AJ_pf2-16" edge="1">
          <mxGeometry relative="1" as="geometry">
            <mxPoint x="-520" y="-539.75" as="targetPoint" />
          </mxGeometry>
        </mxCell>
        <mxCell id="XujKJvzIHlOEt5AJ_pf2-16" value="" style="ellipse;whiteSpace=wrap;html=1;aspect=fixed;fillColor=#e1d5e7;strokeColor=#9673a6;strokeWidth=2;" parent="1" vertex="1">
          <mxGeometry x="-480" y="-519.75" width="40" height="40" as="geometry" />
        </mxCell>
        <mxCell id="XujKJvzIHlOEt5AJ_pf2-17" style="edgeStyle=orthogonalEdgeStyle;curved=1;rounded=0;orthogonalLoop=1;jettySize=auto;html=1;endArrow=none;endFill=0;strokeWidth=3;fillColor=#e1d5e7;strokeColor=#9673a6;" parent="1" edge="1">
          <mxGeometry relative="1" as="geometry">
            <mxPoint x="-520" y="-540" as="targetPoint" />
            <mxPoint x="-520" y="-780" as="sourcePoint" />
          </mxGeometry>
        </mxCell>
        <mxCell id="XujKJvzIHlOEt5AJ_pf2-18" value="" style="ellipse;whiteSpace=wrap;html=1;aspect=fixed;fillColor=#fff2cc;strokeColor=#d6b656;strokeWidth=2;" parent="1" vertex="1">
          <mxGeometry x="-360" y="-439.75" width="40" height="40" as="geometry" />
        </mxCell>
        <mxCell id="XujKJvzIHlOEt5AJ_pf2-19" value="" style="ellipse;whiteSpace=wrap;html=1;aspect=fixed;fillColor=#fff2cc;strokeColor=#d6b656;strokeWidth=2;" parent="1" vertex="1">
          <mxGeometry x="-360" y="-359.75" width="40" height="40" as="geometry" />
        </mxCell>
        <mxCell id="XujKJvzIHlOEt5AJ_pf2-20" style="edgeStyle=orthogonalEdgeStyle;rounded=0;orthogonalLoop=1;jettySize=auto;html=1;exitX=1;exitY=0.5;exitDx=0;exitDy=0;entryX=0.5;entryY=0;entryDx=0;entryDy=0;curved=1;endArrow=none;endFill=0;strokeWidth=3;fillColor=#fff2cc;strokeColor=#d6b656;" parent="1" edge="1">
          <mxGeometry relative="1" as="geometry">
            <mxPoint x="-400" y="-459.9899999999998" as="targetPoint" />
            <mxPoint x="-440" y="-499.99" as="sourcePoint" />
          </mxGeometry>
        </mxCell>
        <mxCell id="XujKJvzIHlOEt5AJ_pf2-21" style="edgeStyle=orthogonalEdgeStyle;curved=1;rounded=0;orthogonalLoop=1;jettySize=auto;html=1;exitX=0;exitY=0.5;exitDx=0;exitDy=0;entryX=0.5;entryY=1;entryDx=0;entryDy=0;endArrow=none;endFill=0;strokeWidth=3;fillColor=#fff2cc;strokeColor=#d6b656;" parent="1" edge="1">
          <mxGeometry relative="1" as="geometry">
            <mxPoint x="-400" y="-379.99" as="targetPoint" />
            <mxPoint x="-360" y="-339.99" as="sourcePoint" />
          </mxGeometry>
        </mxCell>
        <mxCell id="XujKJvzIHlOEt5AJ_pf2-22" style="edgeStyle=orthogonalEdgeStyle;curved=1;rounded=0;orthogonalLoop=1;jettySize=auto;html=1;endArrow=none;endFill=0;strokeWidth=3;fillColor=#fff2cc;strokeColor=#d6b656;" parent="1" edge="1">
          <mxGeometry relative="1" as="geometry">
            <mxPoint x="-400" y="-379.99" as="targetPoint" />
            <mxPoint x="-400" y="-459.99" as="sourcePoint" />
          </mxGeometry>
        </mxCell>
        <mxCell id="XujKJvzIHlOEt5AJ_pf2-23" style="edgeStyle=orthogonalEdgeStyle;curved=1;rounded=0;orthogonalLoop=1;jettySize=auto;html=1;exitX=0;exitY=0.5;exitDx=0;exitDy=0;entryX=0.5;entryY=1;entryDx=0;entryDy=0;endArrow=none;endFill=0;strokeWidth=3;fillColor=#fff2cc;strokeColor=#d6b656;" parent="1" edge="1">
          <mxGeometry relative="1" as="geometry">
            <mxPoint x="-400" y="-459.75" as="targetPoint" />
            <mxPoint x="-360" y="-419.75" as="sourcePoint" />
          </mxGeometry>
        </mxCell>
        <mxCell id="XujKJvzIHlOEt5AJ_pf2-24" style="edgeStyle=orthogonalEdgeStyle;curved=1;rounded=0;orthogonalLoop=1;jettySize=auto;html=1;endArrow=none;endFill=0;strokeWidth=3;fillColor=#dae8fc;strokeColor=#6c8ebf;" parent="1" edge="1">
          <mxGeometry relative="1" as="geometry">
            <mxPoint x="-640" y="-700" as="targetPoint" />
            <mxPoint x="-640" y="-780" as="sourcePoint" />
          </mxGeometry>
        </mxCell>
        <mxCell id="XujKJvzIHlOEt5AJ_pf2-25" value="" style="ellipse;whiteSpace=wrap;html=1;aspect=fixed;fillColor=#f8cecc;strokeColor=#b85450;strokeWidth=2;" parent="1" vertex="1">
          <mxGeometry x="-480" y="-760" width="40" height="40" as="geometry" />
        </mxCell>
        <mxCell id="XujKJvzIHlOEt5AJ_pf2-26" style="edgeStyle=orthogonalEdgeStyle;rounded=0;orthogonalLoop=1;jettySize=auto;html=1;exitX=1;exitY=0.5;exitDx=0;exitDy=0;entryX=0.5;entryY=0;entryDx=0;entryDy=0;curved=1;endArrow=none;endFill=0;strokeWidth=3;fillColor=#f8cecc;strokeColor=#b85450;" parent="1" edge="1">
          <mxGeometry relative="1" as="geometry">
            <mxPoint x="-560" y="-820" as="sourcePoint" />
            <mxPoint x="-520" y="-780" as="targetPoint" />
          </mxGeometry>
        </mxCell>
        <mxCell id="XujKJvzIHlOEt5AJ_pf2-27" style="edgeStyle=orthogonalEdgeStyle;curved=1;rounded=0;orthogonalLoop=1;jettySize=auto;html=1;exitX=0;exitY=0.5;exitDx=0;exitDy=0;entryX=0.5;entryY=1;entryDx=0;entryDy=0;endArrow=none;endFill=0;strokeWidth=3;fillColor=#f8cecc;strokeColor=#b85450;" parent="1" edge="1">
          <mxGeometry relative="1" as="geometry">
            <mxPoint x="-480" y="-740" as="sourcePoint" />
            <mxPoint x="-520" y="-780" as="targetPoint" />
          </mxGeometry>
        </mxCell>
        <mxCell id="XujKJvzIHlOEt5AJ_pf2-28" style="edgeStyle=orthogonalEdgeStyle;curved=1;rounded=0;orthogonalLoop=1;jettySize=auto;html=1;exitX=1;exitY=0.5;exitDx=0;exitDy=0;entryX=1;entryY=1;entryDx=0;entryDy=0;endArrow=none;endFill=0;fillColor=#f8cecc;strokeColor=#b85450;strokeWidth=3;" parent="1" edge="1">
          <mxGeometry relative="1" as="geometry">
            <mxPoint x="-440" y="-740" as="sourcePoint" />
            <mxPoint x="-400" y="-780" as="targetPoint" />
          </mxGeometry>
        </mxCell>
        <mxCell id="XujKJvzIHlOEt5AJ_pf2-29" style="edgeStyle=orthogonalEdgeStyle;curved=1;rounded=0;orthogonalLoop=1;jettySize=auto;html=1;exitX=0;exitY=0.5;exitDx=0;exitDy=0;entryX=0;entryY=0;entryDx=0;entryDy=0;endArrow=none;endFill=0;fillColor=#f8cecc;strokeColor=#b85450;strokeWidth=3;" parent="1" edge="1">
          <mxGeometry relative="1" as="geometry">
            <mxPoint x="-400" y="-780" as="targetPoint" />
            <mxPoint x="-360" y="-820" as="sourcePoint" />
          </mxGeometry>
        </mxCell>
        <mxCell id="XujKJvzIHlOEt5AJ_pf2-30" value="" style="ellipse;whiteSpace=wrap;html=1;aspect=fixed;fillColor=#d5e8d4;strokeColor=#82b366;strokeWidth=2;" parent="1" vertex="1">
          <mxGeometry x="-360" y="-840" width="40" height="40" as="geometry" />
        </mxCell>
        <mxCell id="XujKJvzIHlOEt5AJ_pf2-31" value="" style="ellipse;whiteSpace=wrap;html=1;aspect=fixed;fillColor=#e1d5e7;strokeColor=#9673a6;strokeWidth=2;" parent="1" vertex="1">
          <mxGeometry x="-240" y="-519.75" width="40" height="40" as="geometry" />
        </mxCell>
        <mxCell id="XujKJvzIHlOEt5AJ_pf2-32" style="edgeStyle=orthogonalEdgeStyle;rounded=0;orthogonalLoop=1;jettySize=auto;html=1;exitX=1;exitY=0.5;exitDx=0;exitDy=0;entryX=0.5;entryY=0;entryDx=0;entryDy=0;curved=1;endArrow=none;endFill=0;strokeWidth=3;fillColor=#e1d5e7;strokeColor=#9673a6;" parent="1" edge="1">
          <mxGeometry relative="1" as="geometry">
            <mxPoint x="-280" y="-780.25" as="targetPoint" />
            <mxPoint x="-320" y="-820.25" as="sourcePoint" />
          </mxGeometry>
        </mxCell>
        <mxCell id="XujKJvzIHlOEt5AJ_pf2-33" style="edgeStyle=orthogonalEdgeStyle;curved=1;rounded=0;orthogonalLoop=1;jettySize=auto;html=1;exitX=0;exitY=0.5;exitDx=0;exitDy=0;entryX=0.5;entryY=1;entryDx=0;entryDy=0;endArrow=none;endFill=0;strokeWidth=3;fillColor=#e1d5e7;strokeColor=#9673a6;" parent="1" edge="1">
          <mxGeometry relative="1" as="geometry">
            <mxPoint x="-280" y="-540" as="targetPoint" />
            <mxPoint x="-240" y="-500" as="sourcePoint" />
          </mxGeometry>
        </mxCell>
        <mxCell id="XujKJvzIHlOEt5AJ_pf2-34" style="edgeStyle=orthogonalEdgeStyle;curved=1;rounded=0;orthogonalLoop=1;jettySize=auto;html=1;endArrow=none;endFill=0;strokeWidth=3;fillColor=#e1d5e7;strokeColor=#9673a6;" parent="1" edge="1">
          <mxGeometry relative="1" as="geometry">
            <mxPoint x="-280" y="-530" as="targetPoint" />
            <mxPoint x="-280" y="-780" as="sourcePoint" />
          </mxGeometry>
        </mxCell>
        <mxCell id="XujKJvzIHlOEt5AJ_pf2-35" value="" style="ellipse;whiteSpace=wrap;html=1;aspect=fixed;fillColor=#fff2cc;strokeColor=#d6b656;strokeWidth=2;" parent="1" vertex="1">
          <mxGeometry x="-120" y="-359.75" width="40" height="40" as="geometry" />
        </mxCell>
        <mxCell id="XujKJvzIHlOEt5AJ_pf2-36" style="edgeStyle=orthogonalEdgeStyle;rounded=0;orthogonalLoop=1;jettySize=auto;html=1;exitX=1;exitY=0.5;exitDx=0;exitDy=0;entryX=0.5;entryY=0;entryDx=0;entryDy=0;curved=1;endArrow=none;endFill=0;strokeWidth=3;fillColor=#fff2cc;strokeColor=#d6b656;" parent="1" edge="1">
          <mxGeometry relative="1" as="geometry">
            <mxPoint x="-160" y="-459.9899999999998" as="targetPoint" />
            <mxPoint x="-200" y="-499.99" as="sourcePoint" />
          </mxGeometry>
        </mxCell>
        <mxCell id="XujKJvzIHlOEt5AJ_pf2-37" style="edgeStyle=orthogonalEdgeStyle;curved=1;rounded=0;orthogonalLoop=1;jettySize=auto;html=1;exitX=0;exitY=0.5;exitDx=0;exitDy=0;entryX=0.5;entryY=1;entryDx=0;entryDy=0;endArrow=none;endFill=0;strokeWidth=3;fillColor=#fff2cc;strokeColor=#d6b656;" parent="1" edge="1">
          <mxGeometry relative="1" as="geometry">
            <mxPoint x="-160" y="-379.99" as="targetPoint" />
            <mxPoint x="-120" y="-339.99" as="sourcePoint" />
          </mxGeometry>
        </mxCell>
        <mxCell id="XujKJvzIHlOEt5AJ_pf2-38" style="edgeStyle=orthogonalEdgeStyle;curved=1;rounded=0;orthogonalLoop=1;jettySize=auto;html=1;endArrow=none;endFill=0;strokeWidth=3;fillColor=#fff2cc;strokeColor=#d6b656;" parent="1" edge="1">
          <mxGeometry relative="1" as="geometry">
            <mxPoint x="-160" y="-379.99" as="targetPoint" />
            <mxPoint x="-160" y="-459.99" as="sourcePoint" />
          </mxGeometry>
        </mxCell>
        <mxCell id="XujKJvzIHlOEt5AJ_pf2-39" style="edgeStyle=orthogonalEdgeStyle;curved=1;rounded=0;orthogonalLoop=1;jettySize=auto;html=1;exitX=0;exitY=0.5;exitDx=0;exitDy=0;entryX=0.5;entryY=1;entryDx=0;entryDy=0;endArrow=none;endFill=0;strokeWidth=3;fillColor=#fff2cc;strokeColor=#d6b656;" parent="1" edge="1">
          <mxGeometry relative="1" as="geometry">
            <mxPoint x="-160" y="-459.75" as="targetPoint" />
            <mxPoint x="-120" y="-419.75" as="sourcePoint" />
          </mxGeometry>
        </mxCell>
        <mxCell id="XujKJvzIHlOEt5AJ_pf2-40" value="" style="ellipse;whiteSpace=wrap;html=1;aspect=fixed;fillColor=#fff2cc;strokeColor=#d6b656;strokeWidth=2;" parent="1" vertex="1">
          <mxGeometry x="-120" y="-439.75" width="40" height="40" as="geometry" />
        </mxCell>
        <mxCell id="XujKJvzIHlOEt5AJ_pf2-41" style="edgeStyle=orthogonalEdgeStyle;curved=1;rounded=0;orthogonalLoop=1;jettySize=auto;html=1;exitX=0;exitY=0.5;exitDx=0;exitDy=0;entryX=0;entryY=0;entryDx=0;entryDy=0;endArrow=none;endFill=0;fillColor=#ffe6cc;strokeColor=#d79b00;strokeWidth=3;" parent="1" edge="1">
          <mxGeometry relative="1" as="geometry">
            <mxPoint x="-760" y="-620" as="targetPoint" />
            <mxPoint x="-720" y="-660" as="sourcePoint" />
          </mxGeometry>
        </mxCell>
        <mxCell id="XujKJvzIHlOEt5AJ_pf2-42" style="edgeStyle=orthogonalEdgeStyle;curved=1;rounded=0;orthogonalLoop=1;jettySize=auto;html=1;exitX=1;exitY=0.5;exitDx=0;exitDy=0;entryX=1;entryY=1;entryDx=0;entryDy=0;endArrow=none;endFill=0;fillColor=#ffe6cc;strokeColor=#d79b00;strokeWidth=3;" parent="1" edge="1">
          <mxGeometry relative="1" as="geometry">
            <mxPoint x="-800" y="-580" as="sourcePoint" />
            <mxPoint x="-760" y="-620" as="targetPoint" />
          </mxGeometry>
        </mxCell>
        <mxCell id="XujKJvzIHlOEt5AJ_pf2-43" value="" style="ellipse;whiteSpace=wrap;html=1;aspect=fixed;fillColor=#ffe6cc;strokeColor=#d79b00;strokeWidth=2;" parent="1" vertex="1">
          <mxGeometry x="-840" y="-600" width="40" height="40" as="geometry" />
        </mxCell>
        <mxCell id="XujKJvzIHlOEt5AJ_pf2-45" value="Feature" style="rounded=1;whiteSpace=wrap;html=1;fillColor=#fff2cc;strokeColor=#d6b656;fontSize=14;" parent="1" vertex="1">
          <mxGeometry x="-1160" y="-439.51" width="120" height="40" as="geometry" />
        </mxCell>
        <mxCell id="XujKJvzIHlOEt5AJ_pf2-46" value="Feature" style="rounded=1;whiteSpace=wrap;html=1;fillColor=#fff2cc;strokeColor=#d6b656;fontSize=14;" parent="1" vertex="1">
          <mxGeometry x="-1160" y="-359.51" width="120" height="40" as="geometry" />
        </mxCell>
        <mxCell id="XujKJvzIHlOEt5AJ_pf2-47" value="Staging" style="rounded=1;whiteSpace=wrap;html=1;fillColor=#dae8fc;strokeColor=#6c8ebf;fontSize=14;" parent="1" vertex="1">
          <mxGeometry x="-1160" y="-679.75" width="120" height="40" as="geometry" />
        </mxCell>
        <mxCell id="XujKJvzIHlOEt5AJ_pf2-48" value="Development" style="rounded=1;whiteSpace=wrap;html=1;fillColor=#e1d5e7;strokeColor=#9673a6;fontSize=14;" parent="1" vertex="1">
          <mxGeometry x="-1160" y="-519.75" width="120" height="40" as="geometry" />
        </mxCell>
        <mxCell id="XujKJvzIHlOEt5AJ_pf2-49" value="Testing" style="rounded=1;whiteSpace=wrap;html=1;fillColor=#ffe6cc;strokeColor=#d79b00;fontSize=14;" parent="1" vertex="1">
          <mxGeometry x="-1160" y="-599.75" width="120" height="40" as="geometry" />
        </mxCell>
        <mxCell id="XujKJvzIHlOEt5AJ_pf2-50" value="Production" style="rounded=1;whiteSpace=wrap;html=1;fillColor=#d5e8d4;strokeColor=#82b366;fontSize=14;" parent="1" vertex="1">
          <mxGeometry x="-1160" y="-840" width="120" height="40" as="geometry" />
        </mxCell>
        <mxCell id="XujKJvzIHlOEt5AJ_pf2-51" value="Hot Fix" style="rounded=1;whiteSpace=wrap;html=1;fillColor=#f8cecc;strokeColor=#b85450;fontSize=14;" parent="1" vertex="1">
          <mxGeometry x="-1160" y="-759.75" width="120" height="40" as="geometry" />
        </mxCell>
        <mxCell id="XujKJvzIHlOEt5AJ_pf2-52" style="edgeStyle=orthogonalEdgeStyle;curved=1;rounded=0;orthogonalLoop=1;jettySize=auto;html=1;exitX=0;exitY=0.5;exitDx=0;exitDy=0;entryX=0;entryY=0;entryDx=0;entryDy=0;endArrow=none;endFill=0;fillColor=#fff2cc;strokeColor=#d6b656;strokeWidth=3;" parent="1" edge="1">
          <mxGeometry relative="1" as="geometry">
            <mxPoint x="-880" y="-540" as="targetPoint" />
            <mxPoint x="-840" y="-580" as="sourcePoint" />
          </mxGeometry>
        </mxCell>
        <mxCell id="XujKJvzIHlOEt5AJ_pf2-53" value="" style="ellipse;whiteSpace=wrap;html=1;aspect=fixed;fillColor=#fff2cc;strokeColor=#d6b656;strokeWidth=2;" parent="1" vertex="1">
          <mxGeometry x="-960" y="-439.75" width="40" height="40" as="geometry" />
        </mxCell>
        <mxCell id="XujKJvzIHlOEt5AJ_pf2-54" style="edgeStyle=orthogonalEdgeStyle;curved=1;rounded=0;orthogonalLoop=1;jettySize=auto;html=1;exitX=1;exitY=0.5;exitDx=0;exitDy=0;entryX=1;entryY=1;entryDx=0;entryDy=0;endArrow=none;endFill=0;fillColor=#fff2cc;strokeColor=#d6b656;strokeWidth=3;" parent="1" edge="1">
          <mxGeometry relative="1" as="geometry">
            <mxPoint x="-920" y="-420" as="sourcePoint" />
            <mxPoint x="-880" y="-460" as="targetPoint" />
          </mxGeometry>
        </mxCell>
        <mxCell id="XujKJvzIHlOEt5AJ_pf2-55" style="edgeStyle=orthogonalEdgeStyle;curved=1;rounded=0;orthogonalLoop=1;jettySize=auto;html=1;endArrow=none;endFill=0;strokeWidth=3;fillColor=#fff2cc;strokeColor=#d6b656;" parent="1" edge="1">
          <mxGeometry relative="1" as="geometry">
            <mxPoint x="-880" y="-460" as="targetPoint" />
            <mxPoint x="-880" y="-540" as="sourcePoint" />
          </mxGeometry>
        </mxCell>
      </root>
    </mxGraphModel>
  </diagram>
</mxfile>
